<svg width="791" height="576" viewBox="0 0 791 576" fill="none" xmlns="http://www.w3.org/2000/svg">
<g clip-path="url(#clip0_3_44)">
<path d="M790 174.8C790 174.8 779 170.3 744 186.4C709 202.5 704.4 200.4 695.3 198C686.2 195.6 681.2 195 671.4 181.5C671.4 181.5 664.6 144.3 657.9 138.5C651.2 132.7 623 141.8 623 141.8C623 141.8 589.2 149.6 582.7 104.3C582.7 104.3 587.3 70.2 581.1 59.7C581.1 59.7 593.6 65.2 614.4 56.4C635.2 47.6 651.8 65.8 651.8 65.8C651.8 65.8 657.1 79.4 656.5 87.5C655.9 95.6 659.3 98.5 669.2 94.7C669.2 94.7 674.1 87.7 667.2 76.3C660.3 64.9 655.4 56.3 657.2 47.5C659 38.7 664.7 26.3 682.5 20.1C700.3 13.9 724.5 12.7 736 7.90002C747.5 3.10002 750.4 -0.0999756 750.4 -0.0999756C750.4 -0.0999756 743.3 7.10003 760.1 37.4C776.9 67.7 766.1 80.8 766.1 80.8C766.1 80.8 757.2 102.1 717.8 100.4C717.8 100.4 679.8 101.8 700.5 117.9C700.5 117.9 713.8 115.2 733.6 108.9C753.4 102.6 767.8 128.6 771.3 146.7C774.8 164.8 790 174.8 790 174.8V174.8Z" fill="#009688"/>
<path d="M738.9 23L739.1 22.9C740.7 28.7 723.7 51.9 709.1 70.4L709 70.2C729.5 44.2 740.1 27.4 739 23H738.9Z" fill="#444053"/>
<path d="M709.2 70L709.3 70.2C696.127 87.0333 682.42 103.442 668.2 119.4L667.8 119.2L671.1 115.2C684.242 100.477 696.947 85.3708 709.2 69.9V70Z" fill="#444053"/>
<path d="M668.2 118.7L668.4 119.1C647.1 145.6 645.7 186.8 645.7 187.1L641.2 182.1C641.2 181.7 646.8 145.4 668.2 118.7Z" fill="#444053"/>
<path d="M765.4 160.5C765.4 160.5 740.4 147.5 720.8 152.1C701.2 156.7 657.3 135.6 657.3 135.6C657.3 135.6 638.6 128 634.8 119.4C634.8 119.4 622 105.9 621.3 98.8C620.6 91.7 608.1 74.2 600 73.6" stroke="#444053" stroke-miterlimit="10"/>
<path d="M761.7 173C761.7 173 749.1 164.5 750.6 154.6" stroke="#444053" stroke-miterlimit="10"/>
<path d="M742.3 184C742.3 184 724.3 177.5 722.5 151.8" stroke="#444053" stroke-miterlimit="10"/>
<path d="M713.3 190.7C713.3 190.7 696 176.4 701.7 151.4" stroke="#444053" stroke-miterlimit="10"/>
<path d="M678.3 183.7C678.3 183.7 666.8 159.6 677 143.9" stroke="#444053" stroke-miterlimit="10"/>
<path d="M765.7 144.5C765.7 144.5 752.7 148.7 755.5 155.5" stroke="#444053" stroke-miterlimit="10"/>
<path d="M749.9 120.9C749.9 120.9 732.4 126.4 732 151.1" stroke="#444053" stroke-miterlimit="10"/>
<path d="M725.5 115.2C725.5 115.2 709.8 134.8 710.8 152.7" stroke="#444053" stroke-miterlimit="10"/>
<path d="M697.7 122.9C697.7 122.9 681.9 138 683.9 146.4" stroke="#444053" stroke-miterlimit="10"/>
<path d="M688.2 117.6C688.2 117.6 673.4 120.2 671.3 115.4" stroke="#444053" stroke-miterlimit="10"/>
<path d="M668.9 99.6C668.9 99.6 676.4 109.6 678.4 107.4" stroke="#444053" stroke-miterlimit="10"/>
<path d="M743.2 93.4C743.2 93.4 705.9 96.1 697.4 84.8" stroke="#444053" stroke-miterlimit="10"/>
<path d="M661.1 49.8C661.1 49.8 678.6 87.4001 691.3 92.1001" stroke="#444053" stroke-miterlimit="10"/>
<path d="M679.5 31.8C679.5 31.8 690.2 66.4001 703.5 77.2001" stroke="#444053" stroke-miterlimit="10"/>
<path d="M758.8 64.9001C758.8 64.9001 730.4 77.0001 713.4 64.7001" stroke="#444053" stroke-width="0.75" stroke-miterlimit="10"/>
<path d="M704.8 24.5C704.8 24.5 711.3 49.9 720 56" stroke="#444053" stroke-width="0.75" stroke-miterlimit="10"/>
<path d="M754.5 36.4C754.5 36.4 738.6 42.4 732.6 37.9" stroke="#444053" stroke-width="0.75" stroke-miterlimit="10"/>
<path d="M655.2 108C655.2 108 655.2 130.1 649.2 131.7" stroke="#444053" stroke-miterlimit="10"/>
<path d="M606 136.7C606 136.7 630 138.7 641 126.4" stroke="#444053" stroke-miterlimit="10"/>
<path d="M649.1 81.8C649.1 81.8 643.4 104.3 627.4 110.3" stroke="#444053" stroke-miterlimit="10"/>
<path d="M591.7 113C591.7 113 608.7 119 623.2 104" stroke="#444053" stroke-miterlimit="10"/>
<path d="M630.3 62.4C630.3 62.4 628.7 81.5 618.3 90.4" stroke="#444053" stroke-miterlimit="10"/>
<path d="M592.4 83.9C592.4 83.9 606.4 84 609.7 79.4" stroke="#444053" stroke-miterlimit="10"/>
<path d="M136.1 537.9C136.1 537.9 145.8 531.5 155.3 536C155.3 536 152.3 541.7 140.3 541.1L136.1 537.9Z" fill="#009688"/>
<path d="M134.9 538.2C134.9 538.2 131.9 549.4 139.3 557C139.3 557 143.7 552.4 139.3 541.1L134.9 538.2Z" fill="#009688"/>
<path d="M122.9 527.4C122.9 527.4 123.6 518 145.1 521.1C145.1 521.1 145.1 527.3 137.6 530.1C130.1 532.9 126.6 530.6 122.9 527.5V527.4Z" fill="#009688"/>
<path d="M121.5 527.4C121.5 527.4 112.5 530.4 120.5 550.4C120.5 550.4 126.5 549.1 127.5 541.1C128.5 533.1 125.5 530.4 121.5 527.5V527.4Z" fill="#009688"/>
<path d="M109.4 513.9C109.4 513.9 108.2 498.3 130.1 499.9C130.1 499.9 131.7 514 113.3 517.7L109.4 513.9Z" fill="#009688"/>
<path d="M94.9 496.3C94.9 496.3 97.9 478.6 119.9 483.8C119.9 483.8 119.9 499.2 98.5 500.5L94.9 496.3Z" fill="#009688"/>
<path d="M84.4 478C84.4 478 89.4 460.7 111.1 466C111.1 466 106 481.5 85.8 481.2L84.4 478Z" fill="#009688"/>
<path d="M74.2 460.2C74.2 460.2 79.2 442.3 100.1 447.7C100.1 447.7 93.1 464.7 75.6 463.3L74.2 460.2Z" fill="#009688"/>
<path d="M67.9 443.3C67.9 443.3 71.7 421.3 91.2 426.3C91.2 426.3 85.5 446.1 69.3 446.5L67.9 443.3Z" fill="#009688"/>
<path d="M61.8 422.9C61.8 422.9 66.3 400.9 86.1 407.2C86.1 407.2 78.3 428.2 63.1 425.9L61.8 422.9Z" fill="#009688"/>
<path d="M58 403.8C58 403.8 65.2 381.8 80.5 382.3C80.5 382.3 73.1 405.7 59.3 408.3L58 403.8Z" fill="#009688"/>
<path d="M55.6 385.3C55.6 385.3 63.4 358.7 75.9 360.8C75.9 360.8 70.4 381.1 56 389.5L55.6 385.3Z" fill="#009688"/>
<path d="M54.2 363C54.2 363 61.6 340.9 73.8 340C73.8 340 68.8 361.8 54.5 368.8L54.2 363Z" fill="#009688"/>
<path d="M52.8 342.4C52.8 342.4 61.9 320.3 70 319.8C70 319.8 66 341.6 53.6 346.1L52.8 342.4Z" fill="#009688"/>
<path d="M51.7 323.2C51.7 323.2 57.4 299.2 65.5 297.2C65.5 297.2 64.4 316.8 52.5 325L51.7 323.2Z" fill="#009688"/>
<path d="M48.6 298.1C48.6 298.1 54.6 278.9 61.1 276C61.1 276 59.8 298.6 50.1 302.8L48.6 298.1Z" fill="#009688"/>
<path d="M46.2 281.6L45 247.7C45 247.7 57.2 273.3 47 287.5L46.2 281.6Z" fill="#009688"/>
<path d="M36.6 247.9C36.6 247.9 27.9 223.2 25.7 221.9C25.7 221.9 43.1 237.9 41.4 258.5L36.6 247.9Z" fill="#009688"/>
<path d="M108.8 513.9C108.8 513.9 93.3 511.9 93.8 533.8C93.8 533.8 107.8 536.1 112.4 517.9L108.8 513.9Z" fill="#009688"/>
<path d="M94.2 495.7C94.2 495.7 76.2 495.7 77.7 518.1C77.7 518.1 92.7 520.8 97.7 499.9L94.2 495.7Z" fill="#009688"/>
<path d="M84.2 479.6C84.2 479.6 67.9 471.9 57.4 491.6C57.4 491.6 72.5 498 85.6 482.7L84.2 479.6Z" fill="#009688"/>
<path d="M73.9 460.5C73.9 460.5 57.2 452.3 47.4 471.6C47.4 471.6 64.8 477.6 75.4 463.6L73.9 460.5Z" fill="#009688"/>
<path d="M68.1 443.8C68.1 443.8 52 428.5 39.1 444C39.1 444 55.6 456.6 68.8 447.2L68.1 443.8Z" fill="#009688"/>
<path d="M62.6 422.3C62.6 422.3 46.5 406.6 33.8 423C33.8 423 51.9 435.9 63.2 425.6L62.6 422.3Z" fill="#009688"/>
<path d="M59.7 403.1C59.7 403.1 47.2 383.6 32.6 387.9C32.6 387.9 45.5 408.7 59.6 407.8L59.7 403.1Z" fill="#009688"/>
<path d="M56 385.2C56 385.2 43.4 360.5 31.6 364.8C31.6 364.8 40.6 383.8 56.3 389.3L56 385.2Z" fill="#009688"/>
<path d="M55.2 361.8C55.2 361.8 42.2 342.4 30.2 344.8C30.2 344.8 40.7 364.5 56.4 367.4L55.2 361.8Z" fill="#009688"/>
<path d="M54.1 342C54.1 342 44.1 320.2 36.1 320C36.1 320 40.8 341.6 53.5 345.6L54.1 342Z" fill="#009688"/>
<path d="M52.2 322.7C52.2 322.7 41.1 300.7 32.7 300.6C32.7 300.6 38.4 319.5 51.8 324.6L52.2 322.7Z" fill="#009688"/>
<path d="M50.5 299.3C50.5 299.3 42.2 281.1 35.3 279C35.3 279 39.5 301.3 49.6 304.2L50.5 299.3Z" fill="#009688"/>
<path d="M45.3 280.9L26.6 252.6C26.6 252.6 31.4 280.5 47.9 286.3L45.3 280.9Z" fill="#009688"/>
<path d="M32.4 250.2C32.4 250.2 10.8 235.2 10 232.9C10 232.9 21 253.8 41.4 257.5L32.4 250.2Z" fill="#009688"/>
<path d="M31.1 243.5C31.1 243.5 6.4 219.7 0 219.7C0 219.7 20.4 220.7 31.7 242.3L31.1 243.5Z" fill="#009688"/>
<path d="M50.3 302.9L49.3 303.1C44.7 266.6 37.9 245.1 30.3 242.4L30.5 241.5C38.7 244.3 45.5 265.5 50.3 302.9Z" fill="#444053"/>
<path d="M57.1 390.1L55.7 390.2C55.4 386.8 55.2 383.3 55.1 379.8C53.8 349.7 51.7 321.9 49.1 301.2L49.9 300.2C52.5 321 55.1 349.6 56.4 379.8L57.1 390.1V390.1Z" fill="#444053"/>
<path d="M161.5 555.2C161.3 555.1 137.3 544.3 112.3 518.8C97.68 503.809 85.5292 486.596 76.3 467.8C64.572 442.51 57.5248 415.304 55.5 387.5L56.9 388.2C62.2 451.1 90.9 494.1 113.6 517.5C138.3 542.8 162 553.5 162.3 553.5L161.5 555.2Z" fill="#444053"/>
<path d="M724.7 96.5V534.5C724.7 547.6 712.2 558.2 696.7 558.2H102.2C86.6 558.2 74.1 547.6 74.1 534.6V96.5C74.1 83.5 86.6 70.1 102.1 70.1L696.5 71.6C712 71.6 724.6 83.4 724.6 96.5H724.7Z" fill="#E8EAF2"/>
<path d="M724.7 96.6V116.9H74.2V96.6C74.2 89.5717 76.992 82.8314 81.9617 77.8616C86.9314 72.8919 93.6718 70.1 100.7 70.1H698.1C705.128 70.1 711.869 72.8919 716.838 77.8616C721.808 82.8314 724.6 89.5717 724.6 96.6H724.7Z" fill="#65617D"/>
<path opacity="0.8" d="M105.8 103C110.991 103 115.2 98.7915 115.2 93.6001C115.2 88.4086 110.991 84.2001 105.8 84.2001C100.609 84.2001 96.4 88.4086 96.4 93.6001C96.4 98.7915 100.609 103 105.8 103Z" fill="#FA5959"/>
<path opacity="0.8" d="M133 103C138.191 103 142.4 98.7915 142.4 93.6001C142.4 88.4086 138.191 84.2001 133 84.2001C127.809 84.2001 123.6 88.4086 123.6 93.6001C123.6 98.7915 127.809 103 133 103Z" fill="#FED253"/>
<path opacity="0.8" d="M160.2 103C165.391 103 169.6 98.7915 169.6 93.6001C169.6 88.4086 165.391 84.2001 160.2 84.2001C155.009 84.2001 150.8 88.4086 150.8 93.6001C150.8 98.7915 155.009 103 160.2 103Z" fill="#8CCF4D"/>
<path d="M710.4 549.2L694.6 526.2C694.6 526.2 694.3 520.6 693.2 519.2C692.1 517.8 693 515 693 515C693 515 694.1 513.3 693.2 513.2C692.3 513.1 693 509.4 693 509.4V503.8C693 503.8 693.8 498.3 693 496.9C692.817 496.536 692.739 496.128 692.774 495.722C692.809 495.316 692.957 494.927 693.2 494.6C693.2 494.6 694 491.4 693.2 490.6C692.4 489.8 692.5 484.8 692.7 480.9C692.9 477 691.2 474.9 691.2 474.2C691.2 473.5 685.3 467.9 685.3 467.4C685.3 466.9 681.6 464.7 679.4 464.1C677.2 463.5 676.1 463.1 676.2 462.8C676.3 462.5 672.7 461.4 672.7 461.4C672.7 461.4 669.6 461.1 668.4 459.6C667.2 458.1 663.6 457.6 663.5 457.6V457.3L663.4 456.9C663.656 456.445 663.889 455.978 664.1 455.5L664.4 455C665.674 455.038 666.929 454.69 668 454C668.515 453.548 668.931 452.996 669.224 452.377C669.516 451.757 669.678 451.085 669.7 450.4C669.798 449.019 669.521 447.637 668.9 446.4C668.2 445.1 667.3 443.8 667.6 442.4C667.799 441.754 668.032 441.12 668.3 440.5C668.595 439.313 668.416 438.057 667.8 437L665.8 434C665.03 432.676 664.521 431.216 664.3 429.7C664.251 428.87 664.047 428.056 663.7 427.3C663.361 426.782 662.918 426.339 662.4 426C660.07 424.342 657.258 423.498 654.4 423.6C652.4 423.6 650.4 424.2 648.4 424C647.207 423.768 646.036 423.433 644.9 423C642.4 422.3 639.6 422 637.4 423.4C635.2 424.8 634.4 427.6 632.9 429.8C631.6 431.8 629.7 433.4 628.8 435.4V435.3C628.543 435.775 628.341 436.279 628.2 436.8C627.919 438.435 628.022 440.112 628.5 441.7C628.629 442.524 629.056 443.271 629.7 443.8C630.527 444.131 631.409 444.3 632.3 444.3C632.317 444.466 632.317 444.634 632.3 444.8C631.442 448.925 632.157 453.222 634.302 456.848C636.448 460.473 639.871 463.167 643.9 464.4V464.9C643.928 465.333 643.928 465.767 643.9 466.2C643.9 466.2 636.4 464.6 634.4 465.7C632.4 466.8 628.5 467.5 627.9 468.1C627.3 468.7 625.9 468.2 624.5 471.7C623.1 475.2 623.1 478.7 621.3 480.3C619.5 481.9 618.8 483.1 618.7 484.3C618.6 485.5 618.9 485.7 618.2 486.1C617.5 486.5 616.6 488 616.9 488.6C617 489.005 616.977 489.43 616.835 489.822C616.693 490.214 616.437 490.554 616.1 490.8C615.754 491.046 615.479 491.379 615.303 491.765C615.127 492.152 615.057 492.578 615.1 493C615.1 493 614.6 494.6 613.6 495C612.6 495.4 611.9 497.8 611.9 497.8L608.6 501.6L601.9 494.3C601.653 494.021 601.352 493.793 601.016 493.631C600.68 493.47 600.315 493.377 599.942 493.358C599.569 493.34 599.197 493.396 598.846 493.523C598.495 493.65 598.174 493.847 597.9 494.1L594.7 497C593.459 497.336 592.345 498.032 591.5 499C590.8 499.697 590.225 500.508 589.8 501.4L588 503C587.429 503.689 587.076 504.533 586.987 505.424C586.898 506.314 587.077 507.211 587.5 508L591.8 512.7C590.317 512.888 588.924 513.515 587.8 514.5C581.4 520.1 581.3 525.3 582.3 527.7C583.3 530.1 591.3 539.1 591.3 539.1C594.419 542.952 598.3 546.118 602.7 548.4L602.3 548.9L602.2 549.1C602.168 549.135 602.135 549.168 602.1 549.2L601.9 549.4V549.5L601.7 549.7V549.9L601.5 550.2L601.3 550.7C601.265 550.732 601.232 550.765 601.2 550.8L601.1 551.1V551.3C601.052 551.411 600.984 551.513 600.9 551.6V551.8L600.8 552.1C600.81 552.166 600.81 552.234 600.8 552.3L600.6 552.8C600.608 552.9 600.608 553 600.6 553.1L600.5 553.4C600.522 553.499 600.522 553.601 600.5 553.7V555.8C600.3 564.4 600.8 565.6 600.8 565.6C601.119 566.405 601.65 567.11 602.336 567.638C603.023 568.166 603.84 568.498 604.7 568.6C605.132 568.656 605.568 568.656 606 568.6C611.254 567.446 616.62 566.875 622 566.9C623.9 567.2 627.4 566.7 630 566.2H630.6L631.1 567.6L632.5 567.2L633.8 567.9L634.6 568.3C636 573.3 641.9 571.6 641.9 571.6L643.3 572.4L657.6 572.8C659.186 573.758 660.86 574.562 662.6 575.2C662.86 575.29 663.128 575.357 663.4 575.4C664.732 575.48 666.068 575.48 667.4 575.4H669.3L669 567.1C673.415 567.018 677.823 566.684 682.2 566.1C689.8 564.7 692.9 557.8 694.2 554.1C694.503 555.618 694.703 557.155 694.8 558.7C695.118 560.057 695.519 561.392 696 562.7C696.405 563.764 696.942 564.772 697.6 565.7C703.3 563.7 699.9 560.8 698.6 559.6C697.3 558.4 699.5 557.3 699.5 557.3C699.5 557.3 701 556.3 700.9 555.3C700.8 554.3 700.7 553.3 705.7 553.3C710.7 553.3 710.4 549.3 710.4 549.3V549.2ZM632.4 502.1C632.4 502.5 633.1 507.1 633.8 508.2C633.966 509.023 634 509.867 633.9 510.7L627.9 510.3C627.973 510.42 628.008 510.56 628 510.7L627.5 510.6L626.9 510.4L632.3 502.1H632.4ZM621.5 519.4L626.7 520.2H627.1C626.942 521.025 626.842 521.861 626.8 522.7L627.1 523C627.063 523.399 627.063 523.801 627.1 524.2C627.1 524.6 629.5 525.5 632.3 526.2L632.1 526.6C629.7 525.3 625.9 524.7 625.4 523.8C624.9 522.9 611.9 518.3 611.9 518.3L610.6 517.6L614 518.3L615 518.2C617.139 518.74 619.31 519.14 621.5 519.4Z" fill="url(#paint0_linear_3_44)"/>
<path d="M693.5 552.3C693.5 552.3 691.5 564.7 681 566.5C670.5 568.3 636 567.9 636 567.9C636 567.9 616 565 608.9 548.3C601.8 531.6 597.1 524.9 603.3 524.6C609.5 524.3 642.6 535.8 644.5 535.9C646.4 536 695.3 510.5 693.5 552.3V552.3Z" fill="#65617D"/>
<path opacity="0.05" d="M693.5 552.3C693.5 552.3 691.5 564.7 681 566.5C670.5 568.3 636 567.9 636 567.9C636 567.9 616 565 608.9 548.3C601.8 531.6 597.1 524.9 603.3 524.6C609.5 524.3 642.6 535.8 644.5 535.9C646.4 536 695.3 510.5 693.5 552.3V552.3Z" fill="black"/>
<path d="M600.5 566.2C600.83 566.96 601.356 567.62 602.023 568.112C602.69 568.603 603.476 568.91 604.3 569C604.731 569.057 605.168 569.057 605.6 569C610.827 567.894 616.158 567.358 621.5 567.4C623.4 567.7 626.9 567.2 629.4 566.7L632.3 566.1C632.3 566.1 629.3 556.4 629 556.1C628.7 555.8 615.8 548.1 615.8 548.1L605.7 547.4C604.319 547.59 603.065 548.307 602.2 549.4C601.2 550.7 600.2 552.8 600.2 556.4C600 564.9 600.5 566.1 600.5 566.1V566.2Z" fill="#3F3D56"/>
<path opacity="0.05" d="M600.5 566.2C600.83 566.96 601.356 567.62 602.023 568.112C602.69 568.603 603.476 568.91 604.3 569C603.322 567.721 602.42 566.386 601.6 565V557.9C601.385 555.943 601.635 553.963 602.33 552.121C603.025 550.279 604.146 548.627 605.6 547.3C605.6 547.3 600.3 547.7 600.1 556.3C599.9 564.9 600.5 566.1 600.5 566.1V566.2Z" fill="black"/>
<path opacity="0.1" d="M644.4 550.6L653.8 543.2L668.7 528.5L664.7 528.3C664.1 528.7 662.4 529.9 662.3 531.4C662.3 533.2 658.3 531.5 656.3 532.6C654.3 533.7 644.2 546.4 642.3 546.3C640.4 546.2 639.3 545.4 638.5 546.7L644.4 550.6Z" fill="black"/>
<path opacity="0.1" d="M602.2 549.4L603.2 549.9C610.3 552.9 619.2 559.4 619.8 560.6C620.2 561.3 625.4 564.4 629.3 566.8L632.3 566.2C632.3 566.2 629.3 556.4 628.9 556.2L615.7 548.2L605.6 547.4C604.219 547.59 602.965 548.307 602.1 549.4H602.2Z" fill="black"/>
<path d="M582.3 528.4C583.3 530.7 591.2 539.7 591.2 539.7C591.2 539.7 596.2 546.3 603.4 549.4C610.6 552.5 619.4 558.9 620.1 560.1C620.5 560.8 626.3 564.3 630.3 566.6L631.2 567.2L633.2 568.3L634.2 568.9L639.2 564.9L644 560.9C644 560.7 645 558.2 644.8 558.1C644.6 558 644.1 557 643.2 555.8C642.218 554.525 640.951 553.497 639.5 552.8C637.331 551.711 635.601 549.911 634.6 547.7L633.8 547.1C632.797 546.432 631.677 545.958 630.5 545.7C628.9 545.5 625.9 542.2 625.9 542.2C624.748 541.429 623.79 540.402 623.1 539.2C622.3 537.6 611 529.8 609.9 529L637.4 546.7L644 551L653.4 543.6L668.3 528.9L663.3 528.7C656.1 528.4 643.3 527.9 641.7 528.3C640.386 528.583 639.035 528.65 637.7 528.5C635.644 528.575 633.596 528.2 631.7 527.4C629.2 526.1 625.4 525.5 624.9 524.6C624.4 523.7 611.5 519.1 611.5 519.1C611.5 519.1 593.9 509.7 587.6 515.3C581.3 520.9 581.3 526 582.3 528.3V528.4Z" fill="#65617D"/>
<path d="M639 474.6L641.3 482.2L644.2 499.2L654.9 499.9L658 494.7L661.2 489.6C661.2 489.6 663.1 482.6 664.5 476.1C665.7 470.1 666.5 464.5 665.2 463.9C664 463.3 663.2 461.3 662.7 459.2L662.6 458.4C662.21 456.587 661.942 454.749 661.8 452.9C661.8 452.9 639.3 451.8 642.4 461.1C642.988 462.702 643.292 464.394 643.3 466.1C643.321 466.5 643.321 466.9 643.3 467.3C643.13 468.749 642.659 470.146 641.919 471.403C641.179 472.66 640.184 473.749 639 474.6Z" fill="#EE8E9E"/>
<path d="M634.4 473.4L635.2 486.2L637 497.1L639 502.1L641 529.8C641 529.8 658.6 531.8 662.9 529.8C663.177 529.657 663.417 529.452 663.6 529.2C668.8 521.3 667.1 498.7 667.1 498.7L669.1 484L667.8 476.4L664.6 476.1L662.2 475.8L660.8 477.6C658.6 480.5 654.6 486.1 654.9 488.4C655.3 491.6 654.5 494.9 653.2 495.4C651.9 495.9 651 496.8 650.7 496C650.388 495.24 650.319 494.402 650.5 493.6C650.7 492.4 649.5 488.6 649.5 488.6C649.5 488.6 647.5 484.1 647.7 482.2C647.9 480.3 647.5 478.1 646.9 477.6C646.3 477.1 645.5 476.6 646.2 474.2C646.9 471.8 643.3 467.3 643.3 467.3L634.4 473.4Z" fill="#E3E8F4"/>
<path opacity="0.1" d="M657.7 505.4L658.4 527.4L662.7 529.7C662.981 529.564 663.223 529.357 663.4 529.1C668.6 521.2 666.9 498.6 666.9 498.6L668.9 483.9L667.6 476.3L664.4 476C665.6 470.1 666.4 464.4 665.1 463.8C663.9 463.2 663.1 461.2 662.6 459.1L660.4 474.6L660.6 477.4C660.699 478.338 660.631 479.286 660.4 480.2C660.125 481.381 660.09 482.606 660.3 483.8C659 486.2 658.3 490.5 658 494.6C657.5 500.2 657.7 505.4 657.7 505.4V505.4Z" fill="black"/>
<path d="M662.7 458.8C662.7 458.8 666.4 459.3 667.7 460.8C669 462.3 671.9 462.6 671.9 462.6C671.9 462.6 675.4 463.8 675.3 464C675.2 464.2 676.3 464.8 678.5 465.4C680.7 466 684.4 468.1 684.4 468.6C684.4 469.1 690.2 474.8 690.2 475.4C690.2 476 691.9 478.2 691.7 482C691.5 485.8 691.3 490.8 692.1 491.6C692.9 492.4 692.1 495.6 692.1 495.6C691.888 495.946 691.776 496.344 691.776 496.75C691.776 497.156 691.888 497.554 692.1 497.9C692.8 499.3 691.9 504.7 691.9 504.7L692 510.5C692 510.5 691.2 514.1 692.1 514.2C693 514.3 692 515.9 692 515.9C692 515.9 691.2 518.9 692.2 520.2C693.2 521.5 693.5 527.2 693.5 527.2L709.2 549.9C709.2 549.9 709.4 554.1 704.4 554C699.4 553.9 699.5 555 699.7 556C699.9 557 698.3 557.9 698.3 557.9C698.3 557.9 696.3 558.9 697.5 560.2C698.7 561.5 702 564.2 696.5 566.2C695.842 565.271 695.305 564.264 694.9 563.2C694.42 561.926 694.019 560.624 693.7 559.3C693.7 559.3 693.2 553.8 692.1 553C691 552.2 691.3 548.8 691.3 548.8C691.3 548.8 692.7 545.9 690.7 544.8L658.9 527L658.2 505C658.2 505 657.7 488.9 660.8 483.5C660.582 482.273 660.616 481.014 660.9 479.8C661.4 478.5 660.9 474.3 660.9 474.3L662.7 458.8Z" fill="#3F3D56"/>
<path opacity="0.1" d="M643.6 467.6C643.6 467.6 636.2 466.1 634.2 467.1C632.2 468.1 628.3 468.9 627.7 469.5C627.1 470.1 625.7 469.6 624.4 473.1C623.1 476.6 622.9 480.1 621.2 481.7C619.5 483.3 618.7 484.4 618.6 485.6C618.5 486.8 618.8 487 618.1 487.4C617.4 487.8 616.5 489.4 616.8 489.9C617.1 490.4 632 503.4 632 503.4C632 503.4 632.8 508.3 633.4 509.5C634 510.7 632.7 527.9 631.3 529.1C629.9 530.3 641.1 530.1 641.1 530.1C641.1 530.1 641.7 518.9 642.1 518.3C642.5 517.7 641.8 505.7 641.8 505.7C641.8 505.7 641.8 495.5 642.7 492.7C643.6 489.9 643.5 481 643.5 481C643.5 481 644.4 475.6 645.4 474.4C646.4 473.2 643.5 467.6 643.5 467.6H643.6Z" fill="black"/>
<path d="M643.3 467.3C643.3 467.3 636 465.8 634 466.8C632 467.8 628.1 468.7 627.5 469.3C626.9 469.9 625.5 469.4 624.2 472.8C622.9 476.2 622.7 479.8 621 481.4C619.3 483 618.5 484.1 618.4 485.3C618.3 486.5 618.6 486.7 617.9 487.1C617.2 487.5 616.3 489.1 616.6 489.6C616.9 490.1 631.9 503.1 631.9 503.1C631.9 503.1 632.6 508 633.3 509.2C634 510.4 632.5 527.6 631.1 528.8C629.7 530 640.9 529.8 640.9 529.8C640.9 529.8 641.4 518.6 641.9 518C642.4 517.4 641.6 505.4 641.6 505.4C641.6 505.4 641.6 495.2 642.5 492.4C643.4 489.6 643.3 480.8 643.3 480.8C643.3 480.8 644.2 475.4 645.2 474.1C646.2 472.8 643.3 467.3 643.3 467.3V467.3Z" fill="#3F3D56"/>
<path opacity="0.1" d="M642.5 461.1C643.088 462.702 643.392 464.394 643.4 466.1C647.001 467.143 650.846 466.951 654.326 465.556C657.805 464.16 660.717 461.642 662.6 458.4C662.248 456.618 662.014 454.814 661.9 453C661.9 453 639.4 451.8 642.5 461V461.1Z" fill="black"/>
<path d="M631.4 449.5C631.462 453.781 633.165 457.874 636.158 460.935C639.151 463.997 643.205 465.791 647.483 465.949C651.762 466.106 655.937 464.615 659.147 461.782C662.358 458.95 664.357 454.993 664.734 450.728C665.11 446.463 663.834 442.217 661.169 438.866C658.505 435.515 654.655 433.316 650.415 432.722C646.176 432.128 641.87 433.185 638.387 435.674C634.904 438.164 632.51 441.896 631.7 446.1C631.484 447.22 631.384 448.359 631.4 449.5V449.5Z" fill="#EE8E9E"/>
<path d="M620.7 488.3L616.7 489.5C616.805 489.915 616.774 490.352 616.612 490.748C616.45 491.144 616.166 491.478 615.8 491.7C615.461 491.952 615.191 492.286 615.017 492.671C614.842 493.056 614.767 493.479 614.8 493.9C614.8 493.9 614.4 495.5 613.4 495.9C612.4 496.3 611.7 498.7 611.7 498.7L608.3 502.5C608.3 502.5 607.1 503.5 607.3 504.1C607.5 504.7 606 504.7 606 504.7L606.8 517.7L613.8 519.1L618.1 518.6L621.6 517.3L624.6 515.5L626 511.9L632.2 502.5L620.7 488.3Z" fill="#3F3D56"/>
<path d="M607 505.8C607 505.8 598 492.9 591.4 499.8C584.8 506.7 594.1 518.1 596.3 517.8C598.5 517.5 608.9 516.8 608.9 516.8L607 505.8Z" fill="#EE8E9E"/>
<path d="M627.091 499.266L588.065 479.381C587.327 479.005 586.424 479.298 586.048 480.036L570.93 509.707C570.554 510.445 570.847 511.348 571.585 511.724L610.611 531.609C611.349 531.985 612.253 531.692 612.629 530.954L627.747 501.283C628.123 500.545 627.829 499.642 627.091 499.266Z" fill="#3F3D56"/>
<path d="M588.595 483.325L623.612 501.167L610.173 527.541L575.157 509.699L588.595 483.325Z" fill="#009688"/>
<path d="M581.2 497.2C581.531 497.2 581.8 496.931 581.8 496.6C581.8 496.269 581.531 496 581.2 496C580.869 496 580.6 496.269 580.6 496.6C580.6 496.931 580.869 497.2 581.2 497.2Z" fill="#E6E8EC"/>
<path d="M619.1 517.2C619.708 517.2 620.2 516.708 620.2 516.1C620.2 515.492 619.708 515 619.1 515C618.492 515 618 515.492 618 516.1C618 516.708 618.492 517.2 619.1 517.2Z" fill="#E6E8EC"/>
<path d="M601.1 508.6C601.1 518.2 621.1 520.3 621.1 520.3L626.1 521.1L628.4 521.5L629.4 512L627 511.6C625 511.1 622.5 510.4 622 509.3C621.2 507.4 601.2 498.9 601.1 508.6Z" fill="#EE8E9E"/>
<path opacity="0.1" d="M631.8 446.1C632.245 446.128 632.667 446.304 633 446.6C633.6 447.2 633.6 448.3 634.3 448.6C634.569 448.766 634.886 448.837 635.2 448.8C637.2 448.5 638.2 446.3 640.2 445.7C641.271 445.445 642.395 445.551 643.4 446C643.824 446.127 644.205 446.37 644.5 446.7C645.1 447.5 644.7 448.7 645 449.7C645.4 451 647 451.6 648.4 451.7C649.8 451.8 651.4 452 652.4 453.1C652.704 453.493 652.922 453.945 653.043 454.427C653.163 454.909 653.183 455.41 653.1 455.9C653.023 456.229 653.023 456.571 653.1 456.9C653.5 458.1 655.4 457.9 655.9 457C656.2 456.4 656.1 455.9 656.9 455.7C657.549 455.631 658.204 455.734 658.8 456C660.279 456.508 661.837 456.745 663.4 456.7C664.438 454.552 665.008 452.208 665.07 449.823C665.132 447.439 664.685 445.068 663.76 442.869C662.834 440.671 661.451 438.694 659.703 437.072C657.954 435.449 655.88 434.217 653.618 433.459C651.357 432.7 648.959 432.432 646.586 432.672C644.212 432.912 641.917 433.654 639.853 434.85C637.789 436.046 636.003 437.668 634.615 439.608C633.226 441.547 632.267 443.761 631.8 446.1V446.1Z" fill="black"/>
<path d="M653.1 456.5C653.023 456.171 653.023 455.829 653.1 455.5C653.199 454.972 653.178 454.429 653.04 453.909C652.902 453.39 652.649 452.909 652.3 452.5C651.4 451.5 649.8 451.5 648.4 451.2C647 450.9 645.4 450.5 645 449.2C644.7 448.2 645.1 447 644.5 446.2C644.236 445.881 643.89 445.639 643.5 445.5C642.437 445.004 641.233 444.898 640.1 445.2C638.3 445.8 637.1 448 635.2 448.2C634.906 448.286 634.594 448.286 634.3 448.2C633.6 447.8 633.6 446.7 633 446.2C632.1 445.2 630.4 445.8 629.3 445.1C628.634 444.546 628.205 443.759 628.1 442.9C627.634 441.344 627.531 439.702 627.8 438.1C628.5 435.3 630.8 433.5 632.4 431.1C633.9 429 634.7 426.2 636.9 424.8C639.1 423.4 641.9 423.7 644.3 424.4C645.437 424.831 646.607 425.165 647.8 425.4C649.8 425.6 651.8 425 653.8 425C656.592 424.928 659.331 425.77 661.6 427.4C662.12 427.737 662.563 428.18 662.9 428.7C663.238 429.424 663.441 430.203 663.5 431C663.721 432.516 664.23 433.976 665 435.3L667 438.3C667.616 439.357 667.795 440.613 667.5 441.8C667.3 442.4 666.9 442.9 666.8 443.5C666.4 445 667.4 446.3 668 447.7C668.634 448.9 668.944 450.244 668.9 451.6C668.852 452.275 668.668 452.933 668.359 453.535C668.049 454.136 667.621 454.669 667.1 455.1C666 455.81 664.707 456.159 663.4 456.1C661.81 456.187 660.217 455.984 658.7 455.5C658.134 455.251 657.516 455.148 656.9 455.2C656 455.3 656.2 455.9 655.8 456.5C655.3 457.5 653.4 457.5 653.1 456.5Z" fill="#3F3D56"/>
<path opacity="0.1" d="M643.9 551.1L653.3 543.7L668.3 529L663.3 528.8C662.737 529.325 662.382 530.035 662.3 530.8C662.2 532.6 658.3 530.9 656.3 531.9C654.3 532.9 644.1 545.9 642.3 545.7C640.5 545.5 639.3 544.8 638.5 546.1C638.191 546.463 637.768 546.71 637.3 546.8L643.9 551.1Z" fill="black"/>
<path d="M625 550.5L629.7 565.7L630.4 568L632.7 567.4L637.7 566L659.9 560C662.695 559.855 665.424 559.105 667.9 557.8C672.07 555.47 676.837 554.426 681.6 554.8C684.5 555.1 687.8 553.8 690.5 548.8C690.5 548.8 696.6 530.6 681.1 525.4C665.6 520.2 664.8 528.2 664.8 528.2L664.6 528.3C664 528.7 662.3 529.9 662.3 531.3C662.3 533.2 658.3 531.5 656.3 532.5C654.3 533.5 644.1 546.4 642.3 546.3C640.5 546.2 639.3 545.4 638.5 546.7C637.9 547.5 636.3 547.7 635.2 547.7H634L633 548.1L625 550.5Z" fill="#65617D"/>
<path opacity="0.1" d="M626.2 521.1L628.4 521.4L629.4 512L627 511.6C627.4 512.8 626.6 517.9 626.2 521.1V521.1Z" fill="black"/>
<path opacity="0.1" d="M686.1 477C686.1 477 692.9 475 691.1 494.3C689.966 506.107 684.975 517.212 676.9 525.9C676.9 525.9 662.4 532.2 655.9 531.2C649.4 530.2 644.6 530 644.6 530C642.55 528.946 640.302 528.332 638 528.2C634.4 528 626.7 525.8 626.6 525C626.5 524.2 628.5 513.5 627.6 512.7C627.6 512.7 637.8 513.1 638.8 513.9C639.8 514.7 641.3 514.1 642.5 513.9C643.7 513.7 646.9 510.8 653.5 513.3C653.5 513.3 655.9 513.5 656.7 513C657.415 512.65 658.235 512.578 659 512.8C659.568 512.61 660.107 512.34 660.6 512C660.8 511.7 662.6 512 662.6 512C662.704 512.048 662.817 512.073 662.932 512.073C663.046 512.073 663.16 512.048 663.264 512.001C663.368 511.954 663.461 511.884 663.536 511.798C663.612 511.711 663.667 511.61 663.7 511.5C663.924 510.906 664.264 510.362 664.7 509.9C664.7 509.9 666.7 498.7 670.4 494.6C670.695 494.342 670.922 494.016 671.061 493.649C671.2 493.283 671.248 492.889 671.2 492.5C670.9 491.2 677.2 474.5 686.1 476.9V477Z" fill="black"/>
<path d="M686 475.4C686 475.4 692.7 473.4 691 492.8C689.866 504.607 684.875 515.712 676.8 524.4C676.8 524.4 662.3 530.7 655.8 529.7C649.3 528.7 644.5 528.5 644.5 528.5C642.45 527.446 640.202 526.832 637.9 526.7C634.3 526.6 626.5 524.3 626.4 523.6C626.3 522.9 628.3 512.1 627.4 511.2C627.4 511.2 637.7 511.7 638.7 512.4C639.7 513.1 641.2 512.6 642.3 512.4C643.4 512.2 646.8 509.3 653.4 511.8C653.4 511.8 655.7 512 656.6 511.5C657.315 511.15 658.135 511.078 658.9 511.3C659.468 511.11 660.007 510.84 660.5 510.5C660.7 510.2 662.5 510.5 662.5 510.5C662.699 510.564 662.915 510.547 663.102 510.454C663.289 510.36 663.432 510.198 663.5 510C663.724 509.406 664.064 508.862 664.5 508.4C664.5 508.4 666.5 497.3 670.3 493.1C670.595 492.842 670.822 492.516 670.961 492.15C671.1 491.783 671.148 491.389 671.1 491C670.8 489.8 677.1 473 685.9 475.4H686Z" fill="#3F3D56"/>
<path opacity="0.1" d="M633 548L642.6 559.8C642.8 559.5 643.7 557 643.5 556.8C643.3 556.6 641.5 553 638.2 551.5C636.5 550.649 635.078 549.331 634.1 547.7L633 548Z" fill="black"/>
<path opacity="0.1" d="M633.1 568.3L634.1 568.9L639.1 565L643.9 561C643.9 560.7 644.9 558.3 644.7 558.1L643.1 555.8C636.6 554 640.7 558.6 641.3 558.8C641.3 558.8 633.3 556.9 632.9 565.6C632.848 566.505 632.915 567.413 633.1 568.3V568.3Z" fill="black"/>
<path d="M641.2 572.1L642.6 572.8L656.7 573.2C658.285 574.16 659.96 574.964 661.7 575.6C661.96 575.692 662.228 575.759 662.5 575.8C663.799 575.881 665.101 575.881 666.4 575.8H668.4C668.4 575.8 667.6 557.9 667.1 556.1C666.9 555.1 665.7 555.3 664.6 555.8C663.698 556.16 662.829 556.594 662 557.1C662 557.1 656 557.7 655 558.1C654 558.5 651.4 557.9 649.7 558.1C648 558.3 645 556.2 645 556.2C636.8 553.5 641.4 558.5 642 558.8C642 558.8 634 556.9 633.6 565.6C633.2 574.3 641.2 572 641.2 572V572.1Z" fill="#3F3D56"/>
<path d="M661.6 565.1C661.8 568.8 664.6 573.4 666.4 575.8H668.3C668.3 575.8 667.6 557.9 667.1 556.1C666.9 555.1 665.7 555.3 664.5 555.8C663.1 558.5 661.5 562.2 661.6 565.1V565.1Z" fill="#565387"/>
<path opacity="0.1" d="M661.6 565.1C661.8 568.8 664.6 573.4 666.4 575.8H668.3C668.3 575.8 667.6 557.9 667.1 556.1C666.9 555.1 665.7 555.3 664.5 555.8C663.1 558.5 661.5 562.2 661.6 565.1V565.1Z" fill="black"/>
<path opacity="0.05" d="M659.2 565.6C660.2 569.2 660.2 573.2 661.7 575.6C661.927 575.686 662.161 575.753 662.4 575.8C663.732 575.885 665.068 575.885 666.4 575.8H668.3C668.3 575.8 667.6 557.9 667.1 556.1C666.9 555.1 665.7 555.3 664.5 555.8C663.633 556.165 662.797 556.599 662 557.1C662 557.1 658 561.1 659.2 565.6Z" fill="black"/>
<path opacity="0.1" d="M610.5 529.5C610.5 529.5 617.5 531.8 623.5 539.9L610.5 529.5Z" fill="black"/>
<g opacity="0.1">
<path opacity="0.1" d="M667.5 441.7V441.9C667.474 442.819 667.087 443.691 666.423 444.327C665.759 444.964 664.871 445.313 663.951 445.3C663.032 445.287 662.155 444.912 661.509 444.257C660.863 443.602 660.501 442.72 660.501 441.8C660.501 440.88 660.863 439.998 661.509 439.343C662.155 438.688 663.032 438.314 663.951 438.3C664.871 438.287 665.759 438.637 666.423 439.273C667.087 439.909 667.474 440.781 667.5 441.7V441.7Z" fill="black"/>
<path opacity="0.1" d="M627.7 438.2C627.84 437.678 628.041 437.174 628.3 436.7C628.28 436.836 628.247 436.971 628.2 437.1C627.911 438.734 628.014 440.413 628.5 442C628.629 442.823 629.056 443.571 629.7 444.1C630.7 444.9 632.5 444.2 633.3 445.1C633.9 445.8 633.9 446.8 634.7 447.2C634.982 447.325 635.297 447.36 635.6 447.3C637.5 447 638.6 444.8 640.5 444.3C641.591 443.991 642.754 444.061 643.8 444.5C644.186 444.647 644.53 444.888 644.8 445.2C645.5 446.1 645 447.2 645.3 448.2C645.7 449.6 647.3 450.2 648.8 450.3C650.3 450.4 651.8 450.6 652.7 451.6C653.017 452.005 653.244 452.474 653.364 452.974C653.485 453.474 653.497 453.995 653.4 454.5C653.323 454.829 653.323 455.171 653.4 455.5C653.8 456.6 655.7 456.5 656.2 455.5C656.6 455 656.5 454.5 657.3 454.3C657.916 454.244 658.536 454.347 659.1 454.6C660.612 455.114 662.204 455.351 663.8 455.3C665.117 455.323 666.409 454.939 667.5 454.2C667.999 453.828 668.409 453.35 668.7 452.8C668.451 453.784 667.889 454.661 667.1 455.3C666 456.01 664.707 456.359 663.4 456.3C661.81 456.387 660.217 456.184 658.7 455.7C658.133 455.455 657.515 455.352 656.9 455.4C656 455.5 656.1 456.1 655.8 456.7C655.3 457.6 653.4 457.7 653 456.7C652.911 456.339 652.911 455.961 653 455.6C653.104 455.095 653.095 454.573 652.974 454.072C652.853 453.57 652.623 453.102 652.3 452.7C651.3 451.7 649.7 451.6 648.3 451.4C646.9 451.2 645.3 450.7 644.9 449.4C644.6 448.4 645 447.1 644.4 446.4C644.149 446.044 643.802 445.767 643.4 445.6C642.366 445.128 641.202 445.022 640.1 445.3C638.1 445.9 637.1 448.1 635.1 448.4C634.806 448.486 634.494 448.486 634.2 448.4C633.5 447.9 633.5 446.9 632.9 446.3C632 445.3 630.3 445.9 629.2 445.3C628.572 444.73 628.179 443.945 628.1 443.1C627.565 441.49 627.427 439.775 627.7 438.1V438.2Z" fill="black"/>
</g>
<path opacity="0.1" d="M668.6 496.8C667.2 498.5 665.6 500.2 664.5 502.1C663.209 503.976 662.576 506.226 662.7 508.5C663.9 507.2 664.5 505.5 665.3 503.9C666.6 501.2 668.6 498.9 670.3 496.5C670.5 496 672.5 493.3 671.5 493.2C670.7 493.1 669 496.1 668.5 496.7L668.6 496.8Z" fill="black"/>
<path d="M207.7 260.9H147.7C147.17 260.9 146.661 261.111 146.286 261.486C145.911 261.861 145.7 262.37 145.7 262.9C145.7 263.43 145.911 263.939 146.286 264.314C146.661 264.689 147.17 264.9 147.7 264.9H207.7C208.23 264.9 208.739 264.689 209.114 264.314C209.489 263.939 209.7 263.43 209.7 262.9C209.7 262.37 209.489 261.861 209.114 261.486C208.739 261.111 208.23 260.9 207.7 260.9ZM207.7 267.8H147.7C147.17 267.8 146.661 268.011 146.286 268.386C145.911 268.761 145.7 269.27 145.7 269.8C145.7 270.33 145.911 270.839 146.286 271.214C146.661 271.589 147.17 271.8 147.7 271.8H207.7C208.23 271.8 208.739 271.589 209.114 271.214C209.489 270.839 209.7 270.33 209.7 269.8C209.7 269.27 209.489 268.761 209.114 268.386C208.739 268.011 208.23 267.8 207.7 267.8ZM204.7 221.6H150.7C149.374 221.6 148.102 222.127 147.164 223.064C146.227 224.002 145.7 225.274 145.7 226.6V251.9C145.7 253.226 146.227 254.498 147.164 255.436C148.102 256.373 149.374 256.9 150.7 256.9H204.7C206.026 256.9 207.298 256.373 208.236 255.436C209.173 254.498 209.7 253.226 209.7 251.9V226.6C209.7 225.274 209.173 224.002 208.236 223.064C207.298 222.127 206.026 221.6 204.7 221.6ZM157.4 252.4H152.3C151.77 252.4 151.261 252.189 150.886 251.814C150.511 251.439 150.3 250.93 150.3 250.4C150.3 249.87 150.511 249.361 150.886 248.986C151.261 248.611 151.77 248.4 152.3 248.4H157.4C157.93 248.4 158.439 248.611 158.814 248.986C159.189 249.361 159.4 249.87 159.4 250.4C159.4 250.93 159.189 251.439 158.814 251.814C158.439 252.189 157.93 252.4 157.4 252.4ZM157.4 230.1H152.3C151.77 230.1 151.261 229.889 150.886 229.514C150.511 229.139 150.3 228.63 150.3 228.1C150.3 227.57 150.511 227.061 150.886 226.686C151.261 226.311 151.77 226.1 152.3 226.1H157.4C157.93 226.1 158.439 226.311 158.814 226.686C159.189 227.061 159.4 227.57 159.4 228.1C159.4 228.63 159.189 229.139 158.814 229.514C158.439 229.889 157.93 230.1 157.4 230.1ZM203.1 252.4H198C197.47 252.4 196.961 252.189 196.586 251.814C196.211 251.439 196 250.93 196 250.4C196 249.87 196.211 249.361 196.586 248.986C196.961 248.611 197.47 248.4 198 248.4H203.1C203.63 248.4 204.139 248.611 204.514 248.986C204.889 249.361 205.1 249.87 205.1 250.4C205.1 250.93 204.889 251.439 204.514 251.814C204.139 252.189 203.63 252.4 203.1 252.4V252.4ZM203.1 230.1H198C197.47 230.1 196.961 229.889 196.586 229.514C196.211 229.139 196 228.63 196 228.1C196 227.57 196.211 227.061 196.586 226.686C196.961 226.311 197.47 226.1 198 226.1H203.1C203.63 226.1 204.139 226.311 204.514 226.686C204.889 227.061 205.1 227.57 205.1 228.1C205.1 228.63 204.889 229.139 204.514 229.514C204.139 229.889 203.63 230.1 203.1 230.1V230.1Z" fill="white"/>
<path d="M177.6 247.2C181.797 247.2 185.2 243.797 185.2 239.6C185.2 235.403 181.797 232 177.6 232C173.403 232 170 235.403 170 239.6C170 243.797 173.403 247.2 177.6 247.2Z" fill="white"/>
<path opacity="0.2" d="M292.2 171.1H564.3V322.2H292.2V171.1Z" fill="#009688"/>
<path opacity="0.2" d="M292.2 356H564.3V507.1H292.2V356Z" fill="#009688"/>
<path d="M345.7 276.3H353.9V303.9H345.7V276.3Z" fill="white"/>
<path d="M361.4 242.2H369.6V304H361.4V242.2Z" fill="white"/>
<path d="M377 211.4H385.2V303.9H377V211.4Z" fill="#DFE3EF"/>
<path d="M392.8 189.4H401V303.9H392.8V189.4Z" fill="white"/>
<path d="M377 189.4H385.2V303.9H377V189.4Z" fill="#009688"/>
<path d="M408.4 241H416.6V303.9H408.4V241Z" fill="#009688"/>
<path opacity="0.2" d="M424.1 224.7H432.3V303.9H424.1V224.7Z" fill="#009688"/>
<path d="M439.8 200H448V303.9H439.8V200Z" fill="#009688"/>
<path opacity="0.2" d="M455.5 257.6H463.7V303.9H455.5V257.6Z" fill="#009688"/>
<path d="M471.2 236.3H479.4V303.9H471.2V236.3Z" fill="#009688"/>
<path opacity="0.2" d="M486.9 211.4H495.1V303.9H486.9V211.4Z" fill="#009688"/>
<path d="M502.6 211.4H510.8V303.9H502.6V211.4Z" fill="#009688"/>
<path d="M209.7 413.3C209.674 412.097 209.178 410.953 208.318 410.112C207.458 409.271 206.303 408.8 205.1 408.8H150.3C149.115 408.826 147.985 409.308 147.146 410.146C146.308 410.985 145.826 412.115 145.8 413.3V420.2H209.7V413.3ZM145.7 449.8C145.7 451.02 146.185 452.19 147.047 453.053C147.91 453.915 149.08 454.4 150.3 454.4H205.1C206.32 454.4 207.49 453.915 208.353 453.053C209.215 452.19 209.7 451.02 209.7 449.8V427H145.7V449.8ZM166 443H189.4C189.93 443 190.439 443.211 190.814 443.586C191.189 443.961 191.4 444.47 191.4 445C191.4 445.53 191.189 446.039 190.814 446.414C190.439 446.789 189.93 447 189.4 447H166C165.47 447 164.961 446.789 164.586 446.414C164.211 446.039 164 445.53 164 445C164 444.47 164.211 443.961 164.586 443.586C164.961 443.211 165.47 443 166 443ZM155.8 443H157.5C158.03 443 158.539 443.211 158.914 443.586C159.289 443.961 159.5 444.47 159.5 445C159.5 445.53 159.289 446.039 158.914 446.414C158.539 446.789 158.03 447 157.5 447H155.8C155.27 447 154.761 446.789 154.386 446.414C154.011 446.039 153.8 445.53 153.8 445C153.8 444.47 154.011 443.961 154.386 443.586C154.761 443.211 155.27 443 155.8 443Z" fill="white"/>
<path d="M345.7 461.2H353.9V488.8H345.7V461.2Z" fill="white"/>
<path d="M361.4 427H369.6V488.8H361.4V427Z" fill="white"/>
<path d="M377 396.2H385.2V488.7H377V396.2Z" fill="#DFE3EF"/>
<path d="M392.8 374.3H401V488.8H392.8V374.3Z" fill="white"/>
<path d="M377 374.3H385.2V488.8H377V374.3Z" fill="#009688"/>
<path d="M408.4 425.8H416.6V488.7H408.4V425.8Z" fill="#009688"/>
<path d="M424.1 409.6H432.3V488.8H424.1V409.6Z" fill="white"/>
<path d="M439.8 384.9H448V488.8H439.8V384.9Z" fill="white"/>
<path opacity="0.2" d="M455.5 442.5H463.7V488.8H455.5V442.5Z" fill="#009688"/>
<path opacity="0.2" d="M471.2 421.1H479.4V488.7H471.2V421.1Z" fill="#009688"/>
<path opacity="0.2" d="M486.9 396.2H495.1V488.7H486.9V396.2Z" fill="#009688"/>
<path opacity="0.2" d="M502.6 396.2H510.8V488.7H502.6V396.2Z" fill="#009688"/>
</g>
<defs>
<linearGradient id="paint0_linear_3_44" x1="646.118" y1="575.46" x2="646.118" y2="422.412" gradientUnits="userSpaceOnUse">
<stop stop-color="#808080" stop-opacity="0.3"/>
<stop offset="0.5" stop-color="#808080" stop-opacity="0.1"/>
<stop offset="1" stop-color="#808080" stop-opacity="0.1"/>
</linearGradient>
<clipPath id="clip0_3_44">
<rect width="790.1" height="575.9" fill="white"/>
</clipPath>
</defs>
</svg>
