<svg width="675" height="398" viewBox="0 0 675 398" fill="none" xmlns="http://www.w3.org/2000/svg">
<g clip-path="url(#clip0_68_2)">
<mask id="mask0_68_2" style="mask-type:luminance" maskUnits="userSpaceOnUse" x="0" y="0" width="675" height="398">
<path d="M674.38 0H0V397.257H674.38V0Z" fill="white"/>
</mask>
<g mask="url(#mask0_68_2)">
<path d="M312.382 368.145C311.817 365.601 310.878 363.154 309.597 360.884C308.306 359.025 306.772 357.346 305.037 355.893C299.99 351.312 293.794 346.662 287.104 347.818C285.035 348.276 283.036 349.006 281.159 349.99C280.184 350.443 279.203 350.895 278.2 351.278C275.378 352.458 272.259 352.73 269.275 352.058C267.743 351.647 266.316 350.909 264.806 350.45C264.089 350.235 263.355 350.076 262.613 349.977C264.073 349.324 265.489 348.577 266.853 347.742C274.353 343.147 280.344 334.842 279.509 325.959C279.099 322.984 278.318 320.073 277.184 317.292L274.511 309.899C273.355 306.699 272.158 303.432 270.049 300.772C267.58 297.897 264.441 295.673 260.909 294.298C253.495 291.075 245.392 289.94 237.393 288.84L236.836 288.763V202.35C236.836 200.873 236.249 199.457 235.205 198.412C234.16 197.368 232.744 196.781 231.267 196.781H220.755C220.288 193.941 219.824 191.105 219.363 188.274C218.04 180.192 216.669 171.963 212.945 164.688C210.508 159.926 206.631 155.38 201.403 154.448C200.376 154.354 199.366 154.118 198.403 153.748C196.871 152.996 196.036 151.325 194.86 150.093C191.825 146.912 186.889 146.863 182.824 145.22C179.232 143.793 176.294 141.106 173.024 139.038C169.754 136.97 165.687 135.502 162.067 136.845C162.055 137.109 162.03 137.371 161.99 137.632L159.665 136.56C157.092 135.532 154.704 134.093 152.592 132.3C150.009 129.863 148.631 126.633 147.559 123.2C147.447 122.841 147.338 122.482 147.232 122.121C151.682 117.581 154.694 111.83 155.892 105.587L156.456 107.418C156.583 107.829 156.732 108.234 156.902 108.629C157.19 109.394 157.669 110.072 158.294 110.599C158.472 110.739 158.669 110.854 158.879 110.94C159.072 111.016 159.273 111.068 159.479 111.093C159.768 111.129 160.061 111.107 160.342 111.03C160.813 110.884 161.245 110.635 161.606 110.3C161.967 109.965 162.249 109.553 162.43 109.095C162.541 108.821 162.623 108.537 162.674 108.246C162.701 108.071 162.717 107.894 162.723 107.717V106.993C162.726 106.876 162.715 106.759 162.688 106.645V106.464C162.679 106.325 162.655 106.187 162.618 106.053C162.59 105.921 162.618 105.976 162.618 105.942C162.583 105.768 162.541 105.587 162.507 105.413V105.281C162.507 105.239 162.444 104.996 162.407 104.849C162.37 104.702 162.358 104.661 162.337 104.564V104.522C162.267 104.244 162.205 103.972 162.142 103.694C161.636 101.278 161.507 98.7987 161.759 96.3433C162.176 92.7397 162.841 89.1692 163.75 85.6573L163.896 85.0233C163.952 84.7793 164.007 84.5363 164.056 84.2853C164.167 83.7853 164.279 83.2853 164.383 82.7743L164.634 81.4933L164.822 80.3513V80.2093C165.213 77.6222 165.295 74.9978 165.066 72.3913C164.878 68.7725 163.5 65.317 161.147 62.5613C159.4 60.6193 157.095 59.1853 155.473 57.1453C153.955 55.2383 153.099 52.8853 151.526 51.0123C147.182 45.8263 136.026 41.8303 129.187 41.1343C121.348 40.3403 108.687 42.3453 102.364 46.9753C100.025 48.6813 98.4244 51.1523 96.7954 53.4913C93.8024 57.8423 90.4044 62.1863 85.6084 64.6293C83.7984 65.5483 81.7234 66.2443 80.5194 67.8453C79.8029 68.9307 79.3388 70.1629 79.1614 71.4513C78.2391 75.9841 77.7588 80.5957 77.7274 85.2213V86.9613C77.7417 88.6955 78.1113 90.4085 78.8134 91.9943C78.9244 92.2313 79.0504 92.4603 79.1824 92.6943L79.2664 92.8403C80.1085 94.0439 80.8535 95.3125 81.4944 96.6343C81.654 97.0046 81.7685 97.3927 81.8354 97.7903C81.9546 98.8101 81.8886 99.843 81.6404 100.839C81.6238 100.994 81.5937 101.148 81.5504 101.298L81.4874 101.598C81.4966 101.703 81.4772 101.809 81.4314 101.904C81.3754 102.204 81.3314 102.504 81.2854 102.795C81.1798 103.6 81.2317 104.419 81.4384 105.204C81.5338 105.641 81.7207 106.054 81.9871 106.414C82.2534 106.774 82.5929 107.073 82.9834 107.292C83.3799 107.482 83.802 107.614 84.2364 107.682C84.6754 107.759 85.1204 107.807 85.5524 107.905C86.1074 108.032 86.6433 108.231 87.1464 108.497C87.6286 108.728 88.0801 109.017 88.4904 109.36C88.6934 109.545 88.8863 109.74 89.0684 109.945C89.4362 110.366 89.7671 110.818 90.0574 111.296C90.2061 111.542 90.3454 111.793 90.4754 112.048C90.9741 113.056 91.3727 114.11 91.6654 115.195C91.8464 115.842 91.9994 116.495 92.1314 117.151C92.1944 117.443 92.2494 117.736 92.2984 118.021C92.3474 118.306 92.3984 118.599 92.4374 118.884C92.6273 118.873 92.8149 118.836 92.9944 118.773C93.5 118.497 93.9354 118.109 94.2673 117.638C94.5991 117.167 94.8185 116.627 94.9084 116.058C94.9644 115.863 95.0084 115.675 95.0544 115.487C95.2144 114.787 95.3814 114.025 95.5414 113.294C98.2842 119.121 102.707 123.994 108.241 127.287C108.436 127.865 108.624 128.436 108.791 129.02C109.703 132.174 110.142 135.473 108.561 138.23C107.358 140.113 105.544 141.525 103.423 142.23C103.118 141.823 102.725 141.49 102.274 141.255C100.443 140.336 98.2434 141.45 96.7054 142.821C93.9204 145.341 91.6514 148.954 87.9894 149.782C86.6664 150.088 85.2044 150.026 84.1044 150.833C83.378 151.517 82.7698 152.317 82.3044 153.2C81.5096 154.341 80.441 155.264 79.1966 155.884C77.9522 156.504 76.5718 156.802 75.1824 156.75C73.9084 156.687 72.3974 156.395 71.5274 157.328C70.8804 158.028 70.8274 159.128 70.1354 159.785C69.2024 160.704 67.6714 160.258 66.3694 160.203C65.1227 160.235 63.9035 160.576 62.8212 161.195C61.739 161.815 60.8278 162.694 60.1694 163.753C58.8698 165.907 57.9292 168.258 57.3844 170.714V170.756C57.2058 170.886 57.0361 171.028 56.8764 171.181C56.2016 171.9 55.6786 172.748 55.3384 173.673C49.7087 186.49 46.3857 200.201 45.5224 214.173C45.536 214.854 45.3829 215.528 45.0764 216.136C44.765 216.534 44.423 216.906 44.0534 217.25C43.7226 217.655 43.4764 218.122 43.3295 218.624C43.1827 219.126 43.1381 219.652 43.1985 220.171C43.2588 220.691 43.4228 221.193 43.6808 221.648C43.9388 222.102 44.2855 222.501 44.7004 222.819C44.9007 222.456 45.1515 222.123 45.4454 221.83C45.3684 222.15 45.2994 222.463 45.2504 222.749C44.9707 224.78 44.9448 226.838 45.1734 228.875C45.8327 238.547 46.4994 248.212 47.1734 257.87C47.3614 260.606 47.5494 263.335 47.8004 266.064C48.2877 271.345 48.9837 276.606 49.8884 281.846C49.9271 282.082 49.9781 282.316 50.0414 282.546C44.3674 284.346 39.3204 287.607 37.1974 293.046C36.4594 294.926 36.1254 296.972 35.2204 298.775C34.2204 300.752 32.5894 302.332 31.5034 304.268C29.6304 307.596 29.5474 311.675 30.2294 315.406C31.5454 322.681 35.4784 329.183 40.6714 334.474H39.9714C38.2746 334.662 36.6457 335.246 35.2164 336.18C24.2314 342.598 17.9514 356.368 20.2424 368.941C20.5759 371.432 21.5711 373.788 23.1244 375.763C24.4907 377.25 26.2465 378.324 28.1924 378.863C29.4095 379.231 30.6628 379.465 31.9304 379.563C40.4934 380.263 48.7844 376.291 57.3674 375.957C60.211 375.913 63.0545 376.046 65.8814 376.357C70.0147 376.7 74.1567 376.918 78.3074 377.011C85.0534 377.171 88.8474 375.375 93.1494 370.335C94.2066 369.081 95.0893 367.69 95.7734 366.2C99.4354 365.991 103.479 365.671 106.403 365.434L106.445 365.834C106.605 367.226 106.845 368.827 107.963 369.705C108.589 370.137 109.302 370.429 110.051 370.561C117.082 372.288 124.197 374.042 131.437 374.042C134.835 373.973 138.226 373.713 141.594 373.262L154.313 371.793C158.019 372.263 161.677 373.06 165.243 374.174C168.919 375.42 172.351 377.274 175.943 378.741C184.297 382.124 193.277 383.336 202.174 384.519C203.692 384.719 205.432 384.86 206.553 383.819C208.001 382.427 207.521 380.102 207.11 378.152C206.943 377.352 206.818 376.552 206.72 375.743C212.724 377.326 218.598 379.366 224.291 381.843L225.291 382.282C225.583 383.8 226.983 385.011 228.326 386.647C228.767 387.337 229.283 387.977 229.864 388.554C230.529 388.986 231.284 389.257 232.071 389.348C241.463 391.098 251.053 391.531 260.564 390.636C262.511 390.371 264.48 390.304 266.44 390.436C267.88 390.632 269.3 390.951 270.686 391.39L278.74 393.701C284.678 395.401 290.756 397.119 296.917 396.736C298.166 396.657 299.407 396.478 300.627 396.2C305.5 395.072 310.039 392.35 312.378 387.971C315.689 382.009 314.164 374.689 312.382 368.145Z" fill="url(#paint0_linear_68_2)"/>
<path d="M87.0324 366.789C85.5634 363.447 84.1714 359.605 85.6404 356.263C86.599 354.295 88.246 352.747 90.2694 351.912C92.2717 351.096 94.3821 350.575 96.5344 350.367C103.289 349.481 110.125 349.388 116.902 350.089C117.396 354.001 116.352 357.969 115.454 361.75C114.64 365.231 114.173 365.75 110.581 365.927C108.257 366.049 87.5824 368.019 87.0324 366.789Z" fill="#FBBEBE"/>
<path d="M149.023 344.247C204.003 344.247 248.573 331.78 248.573 316.401C248.573 301.022 204.003 288.555 149.023 288.555C94.0427 288.555 49.4727 301.022 49.4727 316.401C49.4727 331.78 94.0427 344.247 149.023 344.247Z" fill="#464353"/>
<path opacity="0.1" d="M149.023 344.247C204.003 344.247 248.573 331.78 248.573 316.401C248.573 301.022 204.003 288.555 149.023 288.555C94.0427 288.555 49.4727 301.022 49.4727 316.401C49.4727 331.78 94.0427 344.247 149.023 344.247Z" fill="black"/>
<path d="M166.873 169.402C163.461 175.996 157.793 181.144 150.903 183.91C146.835 185.392 142.554 186.206 138.226 186.319C133.495 186.675 128.74 186.095 124.233 184.613C118.274 182.455 113.324 178.041 109.614 172.897C105.904 167.753 103.349 161.877 101.128 155.953C99.9577 152.869 98.8447 149.583 99.3947 146.325C102.98 145.511 106.906 144.313 108.758 141.132C110.338 138.403 109.9 135.132 108.988 132.012C108.728 131.137 108.442 130.27 108.132 129.412C107.432 127.393 105.032 123.557 106.74 121.831C107.805 120.738 112.267 120.181 113.806 119.471C118.547 117.285 122.919 114.125 128.126 113.087C132.626 112.187 137.28 113.031 141.777 113.964C142.374 114.051 142.947 114.257 143.462 114.57C144.049 115.065 144.484 115.717 144.715 116.45C145.996 119.569 146.748 123.015 147.778 126.266C148.85 129.666 150.228 132.866 152.811 135.281C154.929 137.059 157.319 138.484 159.891 139.5L166.059 142.326C167.156 142.737 168.151 143.381 168.976 144.213C169.782 145.322 170.264 146.633 170.368 148C171.473 155.326 170.251 162.813 166.873 169.407V169.402Z" fill="#FBBEBE"/>
<path opacity="0.1" d="M147.749 126.262C142.837 131.376 136.367 134.715 129.353 135.755C122.34 136.796 115.179 135.479 108.994 132.012C108.734 131.137 108.448 130.27 108.138 129.412C107.438 127.393 105.038 123.557 106.746 121.831C107.811 120.738 112.273 120.181 113.812 119.471C118.553 117.285 122.925 114.125 128.132 113.087C132.632 112.187 137.286 113.031 141.784 113.964C142.381 114.051 142.954 114.257 143.469 114.57C144.056 115.065 144.491 115.717 144.722 116.45C145.967 119.565 146.719 123.011 147.749 126.262Z" fill="black"/>
<path d="M124.66 134.706C142.346 134.706 156.683 120.369 156.683 102.683C156.683 84.9974 142.346 70.6602 124.66 70.6602C106.974 70.6602 92.6367 84.9974 92.6367 102.683C92.6367 120.369 106.974 134.706 124.66 134.706Z" fill="#FBBEBE"/>
<path d="M222.224 206.608L219.593 190.666C218.263 182.666 216.893 174.515 213.174 167.31C210.731 162.59 206.853 158.093 201.625 157.16C200.595 157.067 199.583 156.831 198.618 156.46C197.086 155.722 196.251 154.065 195.075 152.84C192.04 149.693 187.097 149.64 183.032 148.04C179.44 146.648 176.502 143.968 173.232 141.921C169.962 139.874 165.888 138.44 162.268 139.749C161.683 145.98 161.068 152.349 158.418 158.023C156.697 161.718 154.172 164.981 151.028 167.574C147.883 170.168 144.199 172.025 140.244 173.011C136.289 173.997 132.164 174.086 128.17 173.273C124.176 172.459 120.415 170.763 117.161 168.308C110.961 163.637 106.983 156.432 105.132 148.892C104.679 147.054 104.164 144.945 102.473 144.102C100.642 143.183 98.4416 144.297 96.9036 145.647C94.1186 148.147 91.8426 151.724 88.1806 152.567C86.8576 152.873 85.3956 152.811 84.2956 153.611C83.5646 154.286 82.9526 155.079 82.4856 155.957C81.6843 157.089 80.6136 158.004 79.3702 158.619C78.1269 159.234 76.7499 159.53 75.3636 159.48C74.0896 159.417 72.5786 159.125 71.7086 160.051C71.0616 160.751 71.0086 161.833 70.3166 162.481C69.3766 163.393 67.8526 162.947 66.5436 162.899C65.3049 162.931 64.0926 163.264 63.0122 163.871C61.9317 164.478 61.0156 165.339 60.3436 166.38C59.0416 168.498 58.1005 170.818 57.5586 173.244C65.1676 190.188 72.1286 207.154 79.7376 224.098C80.094 224.736 80.2832 225.455 80.2876 226.186C80.135 226.945 79.8111 227.66 79.3406 228.275C75.6096 234.269 75.7276 241.808 76.1406 248.853C76.5536 255.898 77.0526 263.34 73.9056 269.653C73.0496 271.386 71.9356 272.974 71.1206 274.707C69.2136 278.633 68.5206 291.192 69.6376 295.407H227.021C224.021 287.158 225.162 270.606 225.789 261.845C226.228 255.719 225.089 249.601 224.606 243.475C223.54 230.968 224.292 219.099 222.224 206.608Z" fill="#009688"/>
<path d="M45.498 224.85C45.2194 226.864 45.1912 228.906 45.414 230.927L47.414 259.657C47.602 262.365 47.79 265.066 48.041 267.767C48.521 273.009 49.241 278.209 50.129 283.403C50.1492 284.14 50.461 284.839 50.996 285.347C51.5311 285.855 52.2457 286.129 52.983 286.111C61.789 287.977 70.883 287.9 79.875 287.392C93.589 286.626 107.282 284.879 121.018 285.178C124.554 285.255 128.676 285.178 130.818 282.393C132.96 279.608 131.718 275.104 128.918 272.856C126.118 270.608 122.318 270.071 118.726 270.071C113.971 270.022 109.217 270.698 104.476 270.419C100.138 270.03 95.8454 269.239 91.653 268.059L79.818 265.114C80.4403 261.547 81.485 258.068 82.93 254.748C85.255 248.712 87.43 242.475 87.469 236.008C87.508 229.541 85.074 222.739 79.777 219.036C75.419 215.994 69.808 215.43 64.496 215.555C60.632 215.666 53.956 214.74 50.427 216.255C47.635 217.478 46.02 222.114 45.498 224.85Z" fill="#FBBEBE"/>
<path d="M230.273 290.537C232.591 289.653 235.146 289.973 237.631 290.307C245.631 291.4 253.747 292.521 261.161 295.716C264.689 297.073 267.829 299.275 270.308 302.128C272.396 304.766 273.615 307.997 274.77 311.178L277.443 318.502C278.58 321.253 279.363 324.138 279.775 327.086C280.61 335.851 274.617 344.114 267.075 348.667C259.533 353.22 250.66 354.842 242.014 356.54C233.368 358.238 224.687 360.118 216.075 362.109C212.06 363.151 207.986 363.952 203.875 364.509C194.658 365.553 185.023 364.015 176.266 367.064C172.785 368.282 169.366 370.092 165.754 370.935C163.354 371.44 160.928 371.81 158.486 372.042L141.911 373.936C138.54 374.387 135.147 374.647 131.747 374.716C124.507 374.716 117.385 373.003 110.354 371.291C109.607 371.16 108.895 370.873 108.266 370.449C107.152 369.572 106.909 368.019 106.748 366.613C106.038 360.39 105.416 354.159 104.882 347.921C104.715 345.895 104.59 343.702 105.697 341.997C107.089 339.909 109.804 339.254 112.283 338.85C122.792 337.131 133.438 336.392 144.083 336.643C148.128 332.598 154.797 332.577 160.094 330.378C162.043 329.483 163.929 328.457 165.74 327.308C175.217 321.779 185.807 318.433 196.74 317.513C198.881 317.449 201.008 317.147 203.082 316.613C207.182 315.339 210.921 311.872 215.132 312.721C215.654 311.28 216.016 309.352 217.22 308.363C217.82 307.855 218.557 307.514 219.107 306.971C220.27 305.794 220.374 303.943 220.2 302.3C220.026 300.657 219.636 298.972 220.061 297.371C220.238 296.765 220.498 296.186 220.834 295.652C222.925 292.041 226.078 290.189 230.273 290.537Z" fill="#464353"/>
<path opacity="0.05" d="M230.273 290.537C232.591 289.653 235.146 289.973 237.631 290.307C245.631 291.4 253.747 292.521 261.161 295.716C264.689 297.073 267.829 299.275 270.308 302.128C272.396 304.766 273.615 307.997 274.77 311.178L277.443 318.502C278.58 321.253 279.363 324.138 279.775 327.086C280.61 335.851 274.617 344.114 267.075 348.667C259.533 353.22 250.66 354.842 242.014 356.54C233.368 358.238 224.687 360.118 216.075 362.109C212.06 363.151 207.986 363.952 203.875 364.509C194.658 365.553 185.023 364.015 176.266 367.064C172.785 368.282 169.366 370.092 165.754 370.935C163.354 371.44 160.928 371.81 158.486 372.042L141.911 373.936C138.54 374.387 135.147 374.647 131.747 374.716C124.507 374.716 117.385 373.003 110.354 371.291C109.607 371.16 108.895 370.873 108.266 370.449C107.152 369.572 106.909 368.019 106.748 366.613C106.038 360.39 105.416 354.159 104.882 347.921C104.715 345.895 104.59 343.702 105.697 341.997C107.089 339.909 109.804 339.254 112.283 338.85C122.792 337.131 133.438 336.392 144.083 336.643C148.128 332.598 154.797 332.577 160.094 330.378C162.043 329.483 163.929 328.457 165.74 327.308C175.217 321.779 185.807 318.433 196.74 317.513C198.881 317.449 201.008 317.147 203.082 316.613C207.182 315.339 210.921 311.872 215.132 312.721C215.654 311.28 216.016 309.352 217.22 308.363C217.82 307.855 218.557 307.514 219.107 306.971C220.27 305.794 220.374 303.943 220.2 302.3C220.026 300.657 219.636 298.972 220.061 297.371C220.238 296.765 220.498 296.186 220.834 295.652C222.925 292.041 226.078 290.189 230.273 290.537Z" fill="black"/>
<path d="M93.4365 371.091C89.1275 376.082 85.3365 377.865 78.5875 377.705C74.4381 377.608 70.2938 377.392 66.1545 377.058C63.325 376.751 60.4793 376.617 57.6335 376.658C49.0435 376.992 40.7515 380.924 32.1825 380.235C30.9153 380.134 29.6623 379.899 28.4445 379.535C26.5019 379.001 24.7457 377.938 23.3715 376.465C21.8203 374.512 20.8247 372.177 20.4895 369.705C19.4544 363.418 20.3288 356.967 22.9996 351.183C25.6705 345.398 30.015 340.547 35.4715 337.258C36.9058 336.332 38.5362 335.753 40.2335 335.567C41.8975 335.56 43.5425 335.921 45.0505 336.624L45.1505 336.666C49.6164 338.504 53.6723 341.212 57.0825 344.631C57.5999 345.224 58.2172 345.72 58.9065 346.099C59.5945 346.357 60.3226 346.493 61.0575 346.499L70.2045 347.077C71.7544 347.123 73.2949 347.335 74.7995 347.71C76.458 348.289 78.0725 348.988 79.6305 349.8C84.5525 352 90.0105 352.585 95.3305 353.434C95.8429 353.462 96.3319 353.657 96.7225 353.99C96.9342 354.253 97.0821 354.562 97.1545 354.891C97.9021 357.689 97.9542 360.626 97.3064 363.448C96.6585 366.27 95.3303 368.892 93.4375 371.084L93.4365 371.091Z" fill="#3F3D56"/>
<path opacity="0.1" d="M45.1515 336.674C41.6026 340.063 38.5239 343.912 35.9975 348.119C31.943 355.062 29.3954 362.78 28.5205 370.772C28.1886 373.687 28.1628 376.629 28.4435 379.55C26.5004 379.014 24.7445 377.949 23.3715 376.473C21.8203 374.52 20.8247 372.184 20.4895 369.713C19.4544 363.426 20.3288 356.974 22.9996 351.19C25.6705 345.405 30.015 340.555 35.4715 337.266C36.9057 336.339 38.5362 335.76 40.2335 335.574C41.8975 335.567 43.5425 335.928 45.0505 336.632L45.1515 336.674Z" fill="black"/>
<path d="M222.312 353.994C227.429 353.855 233.172 353.594 236.931 357.043C240.516 360.301 240.99 365.675 241.231 370.514L241.503 376.132C241.715 377.84 241.532 379.574 240.967 381.2C239.742 383.985 236.379 385.328 233.309 385.168C230.239 385.008 227.42 383.668 224.614 382.453C216.997 379.172 209.067 376.673 200.945 374.997C201.212 371.112 201.653 367.246 202.268 363.397C202.693 360.731 202.762 356.268 204.544 354.055C206.431 351.716 208.888 352.983 211.45 353.415C215.045 353.964 218.684 354.157 222.317 353.993L222.312 353.994Z" fill="#FBBEBE"/>
<path d="M87.0928 297.544C87.0928 298.244 85.9998 297.544 85.9028 296.799C85.1368 291.167 80.6678 286.524 75.4608 284.268C70.2538 282.012 64.3228 281.894 58.6838 282.43C50.1558 283.238 40.5838 286.502 37.4648 294.473C36.7268 296.339 36.3928 298.358 35.4878 300.147C34.4878 302.11 32.8498 303.676 31.7638 305.584C29.8908 308.884 29.8148 312.928 30.4898 316.66C32.3068 326.615 39.1148 335.129 47.3648 341.025C55.6148 346.921 65.2558 350.444 74.8648 353.618C100.287 362.001 126.37 368.229 152.837 372.237C157.147 372.742 161.405 373.62 165.563 374.862C169.239 376.094 172.678 377.939 176.27 379.387C184.624 382.742 193.611 383.94 202.515 385.116C204.033 385.311 205.773 385.45 206.894 384.416C208.342 383.072 207.862 380.733 207.451 378.805C205.94 371.473 207.207 363.841 211.008 357.391C212.498 354.885 214.433 352.316 214.155 349.413C213.821 346.03 210.455 343.635 207.096 343.092C203.737 342.549 200.329 343.35 196.96 343.792C195.805 344.057 194.595 343.938 193.514 343.451C193.013 343.112 192.559 342.709 192.163 342.251C189.842 340.012 186.871 338.565 183.677 338.119C180.483 337.672 177.229 338.249 174.383 339.766C173.137 340.466 171.25 338.91 169.955 338.325L155.315 331.698C138.496 324.089 121.593 316.445 103.8 311.628C102.38 311.349 101.031 310.788 99.8318 309.978C98.9478 309.278 98.3138 308.335 97.4998 307.562C95.7248 305.884 93.2528 305.216 91.1228 304.026C88.9928 302.836 86.6048 299.937 87.0928 297.544Z" fill="#464353"/>
<path d="M312.792 388.521C310.453 392.858 305.914 395.559 301.041 396.673C299.818 396.949 298.575 397.126 297.324 397.202C291.163 397.585 285.079 395.879 279.141 394.195L271.08 391.926C269.694 391.49 268.273 391.173 266.833 390.979C264.873 390.847 262.904 390.914 260.957 391.179C251.429 392.065 241.825 391.634 232.415 389.898C231.628 389.813 230.871 389.543 230.208 389.111C229.627 388.541 229.11 387.908 228.669 387.224C226.476 384.586 224.116 383.047 226.713 379.566C228.213 377.547 230.987 376.538 232.15 374.22C233.313 371.902 232.568 368.609 231.878 366.214C230.938 362.907 227.847 361.48 226.74 358.445C225.912 356.155 227.304 353.495 229.399 352.245C231.586 351.124 234.084 350.764 236.499 351.222C238.915 351.542 241.282 352.222 243.711 352.412C250.854 352.983 258.156 349.3 265.011 351.375C266.522 351.834 267.949 352.565 269.48 352.969C272.466 353.637 275.585 353.367 278.412 352.196C279.412 351.82 280.396 351.368 281.371 350.922C283.251 349.944 285.252 349.22 287.323 348.771C294.013 347.622 300.216 352.252 305.263 356.771C306.996 358.209 308.529 359.871 309.823 361.714C311.12 363.951 312.06 366.377 312.608 368.905C314.456 375.35 315.98 382.603 312.792 388.521Z" fill="#3F3D56"/>
<path opacity="0.1" d="M312.792 388.522C310.453 392.859 305.914 395.56 301.041 396.674C302.936 392.991 303.791 388.861 303.512 384.728C303.094 378.108 300.184 371.87 296.474 366.37C294.191 362.984 291.595 359.822 288.719 356.923C286.505 354.695 283.783 352.923 281.402 350.887C283.281 349.908 285.283 349.185 287.354 348.736C294.044 347.587 300.247 352.217 305.294 356.736C307.027 358.174 308.56 359.836 309.854 361.679C311.151 363.916 312.091 366.342 312.639 368.87C314.456 375.355 315.983 382.605 312.792 388.522Z" fill="black"/>
<path d="M57.1566 173.76C56.4787 174.47 55.9529 175.311 55.6116 176.231C49.9843 188.913 46.6604 202.496 45.7956 216.343C45.8105 217.018 45.6547 217.686 45.3426 218.285C45.0351 218.684 44.6927 219.054 44.3196 219.392C43.9807 219.794 43.7279 220.261 43.5766 220.764C43.4254 221.267 43.379 221.796 43.4403 222.318C43.5016 222.84 43.6693 223.344 43.933 223.798C44.1967 224.253 44.5509 224.649 44.9736 224.961C46.1226 222.796 48.8736 222.093 51.3156 221.905C63.0156 220.979 74.4486 226.423 86.1856 226.012C85.3576 223.151 84.1666 220.401 83.4916 217.505C80.5056 204.647 87.9536 190.648 83.3916 178.263C82.4796 175.785 80.9546 173.348 78.5536 172.263C77.5585 171.861 76.5171 171.585 75.4536 171.442C72.4876 170.906 66.5846 168.616 63.7166 169.535C62.6586 169.876 62.2406 170.872 61.3636 171.47C60.0336 172.326 58.2656 172.639 57.1566 173.76Z" fill="#009688"/>
<path d="M229.116 199.098H89.8138C85.4121 199.098 81.8438 202.666 81.8438 207.068V289.981C81.8438 294.383 85.4121 297.951 89.8138 297.951H229.116C233.518 297.951 237.086 294.383 237.086 289.981V207.068C237.086 202.666 233.518 199.098 229.116 199.098Z" fill="#3F3D56"/>
<path d="M159.118 252.702C161.425 252.702 163.295 250.832 163.295 248.525C163.295 246.218 161.425 244.348 159.118 244.348C156.811 244.348 154.941 246.218 154.941 248.525C154.941 250.832 156.811 252.702 159.118 252.702Z" fill="white"/>
<path d="M102.532 50.7096C100.193 52.4016 98.5925 54.8307 96.9635 57.1627C93.9635 61.4717 90.5635 65.7737 85.7695 68.1757C83.9525 69.0877 81.8785 69.7757 80.6695 71.3637C79.9545 72.437 79.4903 73.6575 79.3115 74.9347C78.3927 79.4258 77.9124 83.9956 77.8775 88.5796C77.7336 90.8716 78.1121 93.1663 78.9845 95.2906C79.9385 97.2396 81.6575 98.8906 82.0125 101.013C82.2835 102.67 81.6715 104.32 81.4555 105.984C81.2395 107.648 81.6155 109.618 83.1555 110.411C83.9845 110.723 84.8503 110.927 85.7315 111.017C90.3605 112.047 91.9135 117.477 92.6165 121.967C94.1895 121.876 94.8995 120.073 95.2275 118.605L100.051 97.1567C100.573 94.8317 101.443 92.1377 103.761 91.3227C105.313 90.7867 107.012 91.2876 108.634 91.4226C115.004 91.9446 120.392 87.0226 126.623 85.6656C128.617 85.2644 130.656 85.1299 132.686 85.2656C137.601 85.5096 143.316 87.5277 144.36 92.1157C144.534 92.8607 144.638 93.7517 145.335 94.1157C146.032 94.4797 146.762 94.1717 147.493 94.1157C150.612 93.8027 152.45 97.3156 153.348 100.179L156.62 110.621C157.107 112.201 157.929 114.06 159.641 114.262C161.221 114.457 162.565 112.962 162.802 111.477C162.88 109.948 162.67 108.417 162.182 106.966C160.644 100.109 162.997 93.0916 164.431 86.2206C165.865 79.3496 166.123 71.4556 161.312 66.1646C159.565 64.2506 157.267 62.8226 155.638 60.8046C154.12 58.9106 153.264 56.5857 151.691 54.7277C147.34 49.5967 136.181 45.6357 129.338 44.9817C121.523 44.1407 108.853 46.1216 102.532 50.7096Z" fill="#3F3D56"/>
<path d="M159.672 109.395C157.959 109.186 157.138 107.307 156.651 105.754C155.56 102.269 154.47 98.788 153.379 95.312C152.479 92.437 150.643 88.928 147.524 89.249C146.793 89.326 146.006 89.611 145.366 89.249C144.726 88.887 144.566 87.989 144.391 87.249C143.347 82.654 137.631 80.643 132.717 80.399C130.687 80.2669 128.649 80.4013 126.654 80.799C120.423 82.191 115.035 87.064 108.665 86.556C107.022 86.424 105.323 85.922 103.792 86.456C101.446 87.264 100.604 89.937 100.082 92.29L95.2612 113.725C94.9342 115.201 94.2242 117.004 92.6502 117.087C91.9502 112.604 90.3942 107.174 85.7652 106.143C84.8852 106.046 84.0202 105.842 83.1892 105.537C82.5828 105.205 82.1084 104.676 81.8452 104.037C81.7202 104.684 81.5742 105.332 81.4902 105.979C81.2812 107.636 81.6502 109.613 83.1902 110.407C84.0192 110.719 84.885 110.923 85.7662 111.013C90.3952 112.043 91.9482 117.473 92.6512 121.963C94.2242 121.873 94.9342 120.069 95.2622 118.601L100.086 97.153C100.608 94.828 101.478 92.134 103.796 91.319C105.348 90.783 107.047 91.284 108.669 91.419C115.039 91.941 120.427 87.019 126.658 85.662C128.652 85.2608 130.691 85.1263 132.721 85.262C137.636 85.506 143.351 87.524 144.395 92.112C144.569 92.857 144.673 93.748 145.37 94.112C146.067 94.476 146.797 94.168 147.528 94.112C150.647 93.799 152.485 97.312 153.383 100.175C154.469 103.66 155.56 107.141 156.655 110.617C157.142 112.197 157.964 114.056 159.676 114.258C161.256 114.453 162.6 112.958 162.837 111.473C162.944 110.224 162.802 108.966 162.419 107.773C162.171 108.281 161.778 108.705 161.29 108.991C160.802 109.277 160.241 109.413 159.676 109.381L159.672 109.395ZM82.0242 96.14C81.6692 94.017 79.9362 92.367 78.9962 90.418C78.3921 89.1033 78.0426 87.6859 77.9662 86.241C77.9662 87.021 77.8962 87.8 77.8892 88.587C77.7453 90.879 78.1238 93.1737 78.9962 95.298C79.7692 96.878 81.0432 98.271 81.6832 99.879C82.0208 98.6637 82.1363 97.3964 82.0242 96.14ZM164.462 81.326C163.195 87.396 161.218 93.578 161.831 99.663C162.231 95.173 163.537 90.655 164.462 86.199C165.235 82.8157 165.507 79.3374 165.27 75.875C165.119 77.7076 164.849 79.5284 164.462 81.326Z" fill="black"/>
<g opacity="0.8">
<path opacity="0.8" d="M567.262 154.364H452.446M229.754 116.835H664.89M406.994 116.828C406.994 116.828 427.802 113.946 417.025 136.271C406.248 158.596 446.263 154.371 446.263 154.371M606.532 116.828C606.532 116.828 585.717 113.946 596.501 136.271C607.285 158.596 567.263 154.371 567.263 154.371" stroke="#3F3D56" stroke-width="3" stroke-miterlimit="10"/>
<path opacity="0.8" d="M229.756 129.539C236.773 129.539 242.461 123.851 242.461 116.834C242.461 109.817 236.773 104.129 229.756 104.129C222.739 104.129 217.051 109.817 217.051 116.834C217.051 123.851 222.739 129.539 229.756 129.539Z" fill="#009688"/>
<path opacity="0.8" d="M307.896 129.539C314.913 129.539 320.601 123.851 320.601 116.834C320.601 109.817 314.913 104.129 307.896 104.129C300.879 104.129 295.191 109.817 295.191 116.834C295.191 123.851 300.879 129.539 307.896 129.539Z" fill="#009688"/>
<path opacity="0.8" d="M358.326 129.539C365.343 129.539 371.031 123.851 371.031 116.834C371.031 109.817 365.343 104.129 358.326 104.129C351.309 104.129 345.621 109.817 345.621 116.834C345.621 123.851 351.309 129.539 358.326 129.539Z" fill="#009688"/>
<path opacity="0.8" d="M446.475 166.883C453.492 166.883 459.18 161.195 459.18 154.178C459.18 147.161 453.492 141.473 446.475 141.473C439.458 141.473 433.77 147.161 433.77 154.178C433.77 161.195 439.458 166.883 446.475 166.883Z" fill="#FF6584"/>
<path opacity="0.8" d="M513.08 166.883C520.097 166.883 525.785 161.195 525.785 154.178C525.785 147.161 520.097 141.473 513.08 141.473C506.063 141.473 500.375 147.161 500.375 154.178C500.375 161.195 506.063 166.883 513.08 166.883Z" fill="#FF6584"/>
<path opacity="0.8" d="M509.607 129.539C516.624 129.539 522.312 123.851 522.312 116.834C522.312 109.817 516.624 104.129 509.607 104.129C502.59 104.129 496.902 109.817 496.902 116.834C496.902 123.851 502.59 129.539 509.607 129.539Z" fill="#009688"/>
<path opacity="0.8" d="M661.674 129.539C668.691 129.539 674.379 123.851 674.379 116.834C674.379 109.817 668.691 104.129 661.674 104.129C654.657 104.129 648.969 109.817 648.969 116.834C648.969 123.851 654.657 129.539 661.674 129.539Z" fill="#009688"/>
<path opacity="0.8" d="M599.467 129.539C606.484 129.539 612.172 123.851 612.172 116.834C612.172 109.817 606.484 104.129 599.467 104.129C592.45 104.129 586.762 109.817 586.762 116.834C586.762 123.851 592.45 129.539 599.467 129.539Z" fill="#009688"/>
<path opacity="0.8" d="M350 0H392.625V29.378H350V0Z" fill="#009688"/>
<path opacity="0.8" d="M424.98 0H467.605V29.378H424.98V0Z" fill="#FF6584"/>
</g>
<g opacity="0.1">
<path opacity="0.1" d="M60.1071 123.01C60.1071 123.01 8.05909 101.123 1.23709 140.615C1.23709 140.615 -2.31991 146.769 2.62909 151.851C2.62909 151.851 3.69409 149.122 8.72009 151.942C10.5155 152.935 12.4225 153.711 14.4011 154.253C17.073 154.99 19.9119 154.838 22.4901 153.821C22.4901 153.821 39.6081 152.895 54.0051 130.5C54.0051 130.5 60.1801 126.685 60.4861 125.251L50.1691 125.951C50.1691 125.951 50.9631 133.504 46.6881 138.036C46.6881 138.036 50.4751 126.313 48.6581 125.986C48.2891 125.916 43.2071 126.586 43.2071 126.586C43.2071 126.586 44.5231 139.722 37.6381 146.517C37.6381 146.517 44.0291 133.158 41.2511 126.823L33.6351 128.292C33.6351 128.292 35.7231 142.111 28.1911 150.144C28.1911 150.144 34.3911 135.944 31.9911 128.73L24.7021 131.18C24.7021 131.18 26.4561 144.692 20.1561 151.368C20.1561 151.368 25.6561 134.236 23.0661 131.876C23.0661 131.876 16.5081 134.535 15.1091 136.053C15.1091 136.053 16.1461 145.799 12.1431 149.315C12.1431 149.315 14.6001 137.48 13.3821 136.993C13.3821 136.993 5.76609 142.729 3.44109 147.679C3.44109 147.679 6.34109 140.119 12.4281 135.844C12.4281 135.844 7.31109 134.981 3.37809 137.118C3.37809 137.118 6.00909 132.099 14.2731 134.48C14.2731 134.48 20.3921 130.24 21.6171 130.303C21.6171 130.303 13.7991 126.822 8.15309 127.254C8.15309 127.254 14.2101 123.773 23.5241 129.586L30.7991 126.962C30.7991 126.962 20.7051 121.79 15.6511 121.81C15.6511 121.81 22.3761 119.21 32.6861 126.446L40.1351 124.928C40.1351 124.928 31.7811 119.811 26.1491 118.621C26.1491 118.621 32.9021 117.549 42.2861 124.573L47.3751 124.148C47.3751 124.148 41.2141 120.514 39.3481 119.63C37.4821 118.746 37.5661 118.175 37.5661 118.175C41.9935 118.934 46.1239 120.905 49.4981 123.87C49.4981 123.87 60.0691 123.657 60.1071 123.01Z" fill="#009688"/>
</g>
<g opacity="0.1">
<path opacity="0.1" d="M58.1862 83.7751C58.1862 83.7751 39.7522 41.1221 13.1942 60.6841C13.1942 60.6841 7.58323 62.3131 7.62523 68.1331C7.62523 68.1331 9.81123 67.1171 11.1962 71.6631C11.7041 73.275 12.4052 74.8195 13.2842 76.263C14.4462 78.2257 16.2188 79.7538 18.3312 80.6141C18.3312 80.6141 29.0312 89.8141 50.3542 84.7141C50.3542 84.7141 56.2022 85.9601 57.1972 85.2921L50.6812 79.8131C50.6812 79.8131 46.8452 84.7561 41.7082 84.9921C41.7082 84.9921 50.6402 80.1921 49.7492 78.9561C49.5682 78.7051 46.1642 76.2131 46.1642 76.2131C46.1642 76.2131 39.4642 84.7621 31.5452 84.8941C31.5452 84.8941 42.9552 80.5941 44.9112 75.2521L39.5512 71.7711C39.5512 71.7711 32.7912 81.1711 23.7412 81.6631C23.7412 81.6631 35.5132 76.755 38.2002 71.102L32.4712 68.408C32.4712 68.408 25.8162 77.4581 18.2902 77.7991C18.2902 77.7991 31.3222 70.7541 31.1202 67.8791C31.1202 67.8791 25.7112 65.7211 23.9912 65.8461C23.9912 65.8461 19.0692 72.2161 14.6772 72.0351C14.6772 72.0351 22.8852 66.403 22.4392 65.422C22.4392 65.422 14.6392 64.4891 10.4442 66.1221C10.4442 66.1221 16.4732 63.2821 22.5222 64.2151C22.5222 64.2151 19.9742 60.7831 16.4312 59.8291C16.4312 59.8291 20.8592 58.3461 24.4092 64.4581C24.4092 64.4581 30.4522 65.433 31.1622 66.158C31.1622 66.158 28.5102 59.6211 24.8972 56.6761C24.8972 56.6761 30.4662 58.068 32.6972 66.819L38.5172 69.4021C38.5172 69.4021 35.4682 60.5751 32.4472 57.7141C32.4472 57.7141 37.9262 59.9971 39.9312 70.1751L45.2222 73.5101C45.2222 73.5101 43.1752 65.7101 40.5092 61.7941C40.5092 61.7941 45.1312 65.0101 46.6982 74.5271L49.9702 77.1721C49.9702 77.1721 48.3762 71.5051 47.7702 69.9181C47.1642 68.3311 47.5402 68.0381 47.5402 68.0381C49.7392 71.023 51.0627 74.5617 51.3622 78.2571C51.3622 78.2571 57.7902 84.1301 58.1862 83.7751Z" fill="#009688"/>
</g>
</g>
</g>
<defs>
<linearGradient id="paint0_linear_68_2" x1="167.052" y1="396.79" x2="167.052" y2="40.9649" gradientUnits="userSpaceOnUse">
<stop stop-color="#808080" stop-opacity="0.251"/>
<stop offset="0.54" stop-color="#808080" stop-opacity="0.122"/>
<stop offset="1" stop-color="#808080" stop-opacity="0.102"/>
</linearGradient>
<clipPath id="clip0_68_2">
<rect width="675" height="398" fill="white"/>
</clipPath>
</defs>
</svg>
